<svg width="48" height="48" viewBox="0 0 48 48" fill="none" xmlns="http://www.w3.org/2000/svg">
<path d="M40.8224 0H7.17756C3.21791 0 0 2.48913 0 5.55202V42.448C0 45.5109 3.21791 48 7.17756 48H40.8224C44.7808 48 48 45.5109 48 42.448V5.55202C48 2.49014 44.7808 0 40.8224 0ZM45.6074 42.448C45.6074 44.4893 43.4589 46.1493 40.8224 46.1493H7.17756C4.53854 46.1493 2.39258 44.4892 2.39258 42.448V5.55202C2.39258 3.51067 4.53872 1.85072 7.17756 1.85072H40.8224C43.459 1.85072 45.6074 3.51082 45.6074 5.55202V42.448ZM6.13092 15.3837H41.8691V5.55202H6.13092V15.3837ZM8.52332 7.40275H39.4765V13.5331H8.52332V7.40275ZM13.9855 20.3843V22.6264C13.9855 23.4295 13.1421 24.0801 12.1049 24.0801H9.20644C8.16817 24.0801 7.32833 23.4296 7.32833 22.6264V20.3843C7.32833 19.582 8.16817 18.9315 9.20644 18.9315H12.1049C13.1421 18.9305 13.9855 19.582 13.9855 20.3843ZM27.3299 20.3843V22.6264C27.3299 23.4286 26.4865 24.0801 25.4493 24.0801H22.552C21.5137 24.0801 20.6726 23.4288 20.6726 22.6264V20.3843C20.6726 19.5812 21.5135 18.9315 22.552 18.9315H25.4493C26.4865 18.9305 27.3299 19.581 27.3299 20.3843ZM40.673 20.3843V22.6264C40.673 23.4286 39.8296 24.0801 38.7925 24.0801H35.8951C34.8579 24.0801 34.0145 23.4288 34.0145 22.6264V20.3843C34.0145 19.5812 34.8579 18.9315 35.8951 18.9315H38.7925C39.8296 18.9305 40.673 19.581 40.673 20.3843ZM13.9855 29.4535V31.6955C13.9855 32.4978 13.1421 33.1483 12.1049 33.1483H9.20644C8.16817 33.1483 7.32833 32.4978 7.32833 31.6955V29.4535C7.32833 28.6512 8.16817 28.0007 9.20644 28.0007H12.1049C13.1421 27.9998 13.9855 28.6503 13.9855 29.4535ZM13.9855 38.5218V40.763C13.9855 41.5661 13.1421 42.2167 12.1049 42.2167H9.20644C8.16817 42.2167 7.32833 41.5662 7.32833 40.763V38.5218C7.32833 37.7177 8.16817 37.068 9.20644 37.068H12.1049C13.1421 37.0682 13.9855 37.7177 13.9855 38.5218ZM27.3299 29.4526V31.6965C27.3299 32.4979 26.4865 33.1484 25.4493 33.1484H22.552C21.5137 33.1484 20.6726 32.4979 20.6726 31.6965V29.4526C20.6726 28.6503 21.5135 27.9998 22.552 27.9998H25.4493C26.4865 27.9988 27.3299 28.6493 27.3299 29.4526ZM27.3299 38.5209V40.763C27.3299 41.5652 26.4865 42.2167 25.4493 42.2167H22.552C21.5137 42.2167 20.6726 41.5652 20.6726 40.763V38.5209C20.6726 37.7178 21.5135 37.0671 22.552 37.0671H25.4493C26.4865 37.0671 27.3299 37.7176 27.3299 38.5209ZM40.673 29.4526V31.6965C40.673 31.6993 40.6694 31.7022 40.6694 31.7058V38.5116C40.6694 38.5143 40.673 38.5189 40.673 38.5218V40.7638C40.673 41.5661 39.8296 42.2176 38.7925 42.2176H35.8951C34.8555 42.2176 34.0145 41.5662 34.0145 40.7638V39.7136V38.5218V31.6965V30.0726V29.4526C34.0145 28.6503 34.8555 27.9998 35.8951 27.9998H38.7925C39.8296 27.9988 40.673 28.6493 40.673 29.4526Z" fill="#E2AE5E"/>
</svg>
