<svg width="48" height="48" viewBox="0 0 48 48" fill="none" xmlns="http://www.w3.org/2000/svg">
<path d="M21.0424 5.24712C22.6292 3.50486 25.3704 3.50486 26.9572 5.24712L28.9976 7.48758C29.7994 8.36812 30.952 8.84552 32.1418 8.78992L35.1688 8.64846C37.5226 8.53844 39.4612 10.4769 39.3512 12.8308L39.2096 15.8579C39.154 17.0475 39.6314 18.2001 40.512 19.002L42.7524 21.0424C44.4948 22.6292 44.4948 25.3704 42.7524 26.9572L40.512 28.9976C39.6314 29.7994 39.154 30.952 39.2096 32.1418L39.3512 35.1688C39.4612 37.5226 37.5226 39.4612 35.1688 39.3512L32.1418 39.2096C30.952 39.154 29.7994 39.6314 28.9976 40.512L26.9572 42.7524C25.3704 44.4948 22.6292 44.4948 21.0424 42.7524L19.002 40.512C18.2001 39.6314 17.0475 39.154 15.8579 39.2096L12.8308 39.3512C10.4769 39.4612 8.53844 37.5226 8.64846 35.1688L8.78992 32.1418C8.84552 30.952 8.36812 29.7994 7.48758 28.9976L5.24712 26.9572C3.50486 25.3704 3.50486 22.6292 5.24712 21.0424L7.48758 19.002C8.36812 18.2001 8.84552 17.0475 8.78992 15.8579L8.64846 12.8308C8.53844 10.4769 10.4769 8.53844 12.8308 8.64846L15.8579 8.78992C17.0475 8.84552 18.2001 8.36812 19.002 7.48758L21.0424 5.24712Z" stroke="#E2AE5E" stroke-width="1.5"/>
<path d="M18 24L22 28L30 20" stroke="#E2AE5E" stroke-width="1.5" stroke-linecap="round" stroke-linejoin="round"/>
</svg>
