<svg width="48" height="48" viewBox="0 0 48 48" fill="none" xmlns="http://www.w3.org/2000/svg">
<path d="M18.0168 46.3637C13.2553 46.3637 8.49379 46.3637 3.72265 46.3637C3.15511 46.3637 2.46252 46.4837 1.91423 46.2983C1.34669 46.102 1.43327 45.2951 1.43327 44.7826C1.43327 42.6018 1.43327 40.4102 1.43327 38.2294C1.43327 31.4144 1.43327 24.5885 1.43327 17.7736C1.43327 15.7454 1.43327 13.7173 1.43327 11.6892C1.43327 11.0677 1.51022 10.348 2.24128 10.348C2.90501 10.348 3.55912 10.348 4.22285 10.348C7.17595 10.348 10.1194 10.348 13.0725 10.348C14.3134 10.348 15.5543 10.348 16.7952 10.348C17.3146 10.348 18.2958 10.1517 18.6421 10.7078C18.8729 11.0677 18.796 11.6892 18.796 12.1144C18.796 13.0195 18.796 13.9354 18.796 14.8404C18.796 17.8717 18.796 20.903 18.796 23.9452C18.796 30.3131 18.796 36.681 18.796 43.0489C18.796 43.7141 18.796 44.3683 18.796 45.0334C18.8056 45.644 18.7383 46.331 18.0168 46.3637C17.0934 46.4073 17.0838 48.0429 18.0168 47.9993C19.4116 47.9339 20.2485 46.7017 20.2485 45.197C20.2485 44.5209 20.2485 43.834 20.2485 43.158C20.2485 40.3884 20.2485 37.6187 20.2485 34.8491C20.2485 28.2305 20.2485 21.6009 20.2485 14.9822C20.2485 14.0553 20.2485 13.1176 20.2485 12.1908C20.2485 11.7219 20.287 11.1985 20.2004 10.7296C19.9792 9.56291 19.0653 8.7124 18.0072 8.7124C17.8244 8.7124 17.6321 8.7124 17.4493 8.7124C16.3912 8.7124 15.3427 8.7124 14.2846 8.7124C11.2641 8.7124 8.25331 8.7124 5.23287 8.7124C4.31904 8.7124 3.40521 8.7124 2.49138 8.7124C1.18317 8.7124 0 9.65014 0 11.253C0 15.8763 0 20.4887 0 25.1119C0 31.2945 0 37.477 0 43.6595C0 44.2265 0 44.7935 0 45.3605C0 46.8326 0.981162 47.9993 2.28938 47.9993C4.43447 47.9993 6.58918 47.9993 8.73427 47.9993C11.8317 47.9993 14.9194 47.9993 18.0168 47.9993C18.9499 47.9993 18.9499 46.3637 18.0168 46.3637Z" fill="#E2AE5E"/>
<path d="M47.2785 46.3637C43.1807 46.3637 39.0829 46.3637 34.9851 46.3637C29.9831 46.3637 24.9811 46.3637 19.9791 46.3637C19.8252 46.3637 19.6712 46.3637 19.5173 46.3637C19.7578 46.6363 19.9983 46.9089 20.2388 47.1815C20.2388 42.0131 20.2388 36.8555 20.2388 31.687C20.2388 28.5031 20.2388 25.3191 20.2388 22.1352C19.9983 22.4078 19.7578 22.6804 19.5173 22.953C23.6151 22.953 27.7129 22.953 31.8107 22.953C36.8127 22.953 41.8147 22.953 46.8167 22.953C46.9706 22.953 47.1246 22.953 47.2785 22.953C47.038 22.6804 46.7975 22.4078 46.557 22.1352C46.557 27.3036 46.557 32.4612 46.557 37.6297C46.557 40.8136 46.557 43.9976 46.557 47.1815C46.557 48.2392 47.9999 48.2392 47.9999 47.1815C47.9999 42.0131 47.9999 36.8555 47.9999 31.687C47.9999 28.5031 47.9999 25.3191 47.9999 22.1352C47.9999 21.6881 47.6729 21.3174 47.2785 21.3174C43.1807 21.3174 39.0829 21.3174 34.9851 21.3174C29.9831 21.3174 24.9811 21.3174 19.9791 21.3174C19.8252 21.3174 19.6712 21.3174 19.5173 21.3174C19.123 21.3174 18.7959 21.6881 18.7959 22.1352C18.7959 27.3036 18.7959 32.4612 18.7959 37.6297C18.7959 40.8136 18.7959 43.9976 18.7959 47.1815C18.7959 47.6286 19.123 47.9993 19.5173 47.9993C23.6151 47.9993 27.7129 47.9993 31.8107 47.9993C36.8127 47.9993 41.8147 47.9993 46.8167 47.9993C46.9706 47.9993 47.1246 47.9993 47.2785 47.9993C48.2115 47.9993 48.2115 46.3637 47.2785 46.3637Z" fill="#E2AE5E"/>
<path d="M47.2786 12.1361C42.5748 12.1361 37.871 12.1361 33.1672 12.1361C31.2048 12.1361 29.2521 12.1361 27.2898 12.1361C27.5303 12.4087 27.7708 12.6813 28.0112 12.9539C28.0112 8.90852 28.0112 4.86316 28.0112 0.817796C27.7708 1.09039 27.5303 1.36299 27.2898 1.63559C31.9936 1.63559 36.6974 1.63559 41.4012 1.63559C43.3635 1.63559 45.3163 1.63559 47.2786 1.63559C47.0381 1.36299 46.7976 1.09039 46.5571 0.817796C46.5571 4.86316 46.5571 8.90852 46.5571 12.9539C46.5571 14.0116 48 14.0116 48 12.9539C48 8.90852 48 4.86316 48 0.817796C48 0.370734 47.673 0 47.2786 0C42.5748 0 37.871 0 33.1672 0C31.2048 0 29.2521 0 27.2898 0C26.8954 0 26.5684 0.370734 26.5684 0.817796C26.5684 4.86316 26.5684 8.90852 26.5684 12.9539C26.5684 13.4009 26.8954 13.7717 27.2898 13.7717C31.9936 13.7717 36.6974 13.7717 41.4012 13.7717C43.3635 13.7717 45.3163 13.7717 47.2786 13.7717C48.2116 13.7717 48.2116 12.1361 47.2786 12.1361Z" fill="#E2AE5E"/>
<path d="M36.5625 0.817676C36.5625 4.86304 36.5625 8.9084 36.5625 12.9538C36.5625 14.0114 38.0054 14.0114 38.0054 12.9538C38.0054 8.9084 38.0054 4.86304 38.0054 0.817676C38.0054 -0.240007 36.5625 -0.240007 36.5625 0.817676Z" fill="#E2AE5E"/>
<path d="M39.2271 5.1248C39.2271 6.30243 39.2271 7.48006 39.2271 8.65768C39.2271 9.71536 40.6699 9.71536 40.6699 8.65768C40.6699 7.48006 40.6699 6.30243 40.6699 5.1248C40.6699 4.06712 39.2271 4.06712 39.2271 5.1248Z" fill="#E2AE5E"/>
<path d="M34.1675 5.1248C34.1675 6.30243 34.1675 7.48006 34.1675 8.65768C34.1675 9.71536 35.6104 9.71536 35.6104 8.65768C35.6104 7.48006 35.6104 6.30243 35.6104 5.1248C35.6104 4.06712 34.1675 4.06712 34.1675 5.1248Z" fill="#E2AE5E"/>
<path d="M47.2788 33.8351C42.7289 33.8351 38.1886 33.8351 33.6387 33.8351C33.5617 33.8351 33.4752 33.8351 33.3982 33.8351C33.6387 34.1077 33.8792 34.3803 34.1196 34.6529C34.1196 30.4767 34.1196 26.3005 34.1196 22.1352C33.8792 22.4078 33.6387 22.6804 33.3982 22.953C37.9481 22.953 42.4884 22.953 47.0383 22.953C47.1152 22.953 47.2018 22.953 47.2788 22.953C47.0383 22.6804 46.7978 22.4078 46.5573 22.1352C46.5573 26.3114 46.5573 30.4876 46.5573 34.6529C46.5573 35.7106 48.0002 35.7106 48.0002 34.6529C48.0002 30.4767 48.0002 26.3005 48.0002 22.1352C48.0002 21.6881 47.6731 21.3174 47.2788 21.3174C42.7289 21.3174 38.1886 21.3174 33.6387 21.3174C33.5617 21.3174 33.4752 21.3174 33.3982 21.3174C33.0038 21.3174 32.6768 21.6881 32.6768 22.1352C32.6768 26.3114 32.6768 30.4876 32.6768 34.6529C32.6768 35.1 33.0038 35.4707 33.3982 35.4707C37.9481 35.4707 42.4884 35.4707 47.0383 35.4707C47.1152 35.4707 47.2018 35.4707 47.2788 35.4707C48.2118 35.4707 48.2118 33.8351 47.2788 33.8351Z" fill="#E2AE5E"/>
<path d="M47.2788 46.3634C42.7289 46.3634 38.1886 46.3634 33.6387 46.3634C33.5617 46.3634 33.4752 46.3634 33.3982 46.3634C33.6387 46.636 33.8792 46.9086 34.1196 47.1812C34.1196 43.005 34.1196 38.8288 34.1196 34.6635C33.8792 34.9361 33.6387 35.2087 33.3982 35.4813C37.9481 35.4813 42.4884 35.4813 47.0383 35.4813C47.1152 35.4813 47.2018 35.4813 47.2788 35.4813C47.0383 35.2087 46.7978 34.9361 46.5573 34.6635C46.5573 38.8397 46.5573 43.0159 46.5573 47.1812C46.5573 48.2389 48.0002 48.2389 48.0002 47.1812C48.0002 43.005 48.0002 38.8288 48.0002 34.6635C48.0002 34.2164 47.6731 33.8457 47.2788 33.8457C42.7289 33.8457 38.1886 33.8457 33.6387 33.8457C33.5617 33.8457 33.4752 33.8457 33.3982 33.8457C33.0038 33.8457 32.6768 34.2164 32.6768 34.6635C32.6768 38.8397 32.6768 43.0159 32.6768 47.1812C32.6768 47.6283 33.0038 47.999 33.3982 47.999C37.9481 47.999 42.4884 47.999 47.0383 47.999C47.1152 47.999 47.2018 47.999 47.2788 47.999C48.2118 47.999 48.2118 46.3634 47.2788 46.3634Z" fill="#E2AE5E"/>
<path d="M29.7617 32.8862C29.7617 34.0638 29.7617 35.2414 29.7617 36.419C29.7617 37.4767 31.2046 37.4767 31.2046 36.419C31.2046 35.2414 31.2046 34.0638 31.2046 32.8862C31.2046 31.8394 29.7617 31.8394 29.7617 32.8862Z" fill="#E2AE5E"/>
<path d="M38.6788 29.2118C39.7177 29.2118 40.7566 29.2118 41.7954 29.2118C42.7285 29.2118 42.7285 27.5762 41.7954 27.5762C40.7566 27.5762 39.7177 27.5762 38.6788 27.5762C37.7457 27.5762 37.7457 29.2118 38.6788 29.2118Z" fill="#E2AE5E"/>
<path d="M38.7848 41.7401C39.8236 41.7401 40.8625 41.7401 41.9014 41.7401C42.8345 41.7401 42.8345 40.1045 41.9014 40.1045C40.8625 40.1045 39.8236 40.1045 38.7848 40.1045C37.8517 40.1045 37.8517 41.7401 38.7848 41.7401Z" fill="#E2AE5E"/>
<path d="M0.721284 33.704C5.47319 33.704 10.2347 33.704 14.9866 33.704C16.4968 33.704 18.0071 33.704 19.5269 33.704C20.46 33.704 20.46 32.0684 19.5269 32.0684C14.775 32.0684 10.0135 32.0684 5.26157 32.0684C3.75134 32.0684 2.24112 32.0684 0.721284 32.0684C-0.211782 32.0684 -0.211782 33.704 0.721284 33.704Z" fill="#E2AE5E"/>
<path d="M2.44336 22.1351C2.44336 23.1709 2.44336 24.2068 2.44336 25.2536C2.44336 26.3113 3.88625 26.3113 3.88625 25.2536C3.88625 24.2177 3.88625 23.1818 3.88625 22.1351C3.88625 21.0774 2.44336 21.0774 2.44336 22.1351Z" fill="#E2AE5E"/>
<path d="M2.44336 39.1453C2.44336 40.1812 2.44336 41.2171 2.44336 42.2638C2.44336 43.3215 3.88625 43.3215 3.88625 42.2638C3.88625 41.228 3.88625 40.1921 3.88625 39.1453C3.88625 38.0876 2.44336 38.0876 2.44336 39.1453Z" fill="#E2AE5E"/>
</svg>
