<svg width="48" height="48" viewBox="0 0 48 48" fill="none" xmlns="http://www.w3.org/2000/svg">
<path d="M45.5926 28.5745C45.8544 28.0145 45.8835 27.3817 45.6726 26.7926L41.3162 14.8363C41.949 13.9272 42.3271 12.829 42.3271 11.6435C42.3271 9.49809 41.1126 7.63627 39.3381 6.70537V3.69446C39.3381 2.26173 38.1744 1.09082 36.7344 1.09082C35.3017 1.09082 34.1308 2.25446 34.1308 3.69446V6.70537C32.3562 7.64355 31.1417 9.50537 31.1417 11.6435C31.1417 12.829 31.5199 13.9272 32.1526 14.8363L30.5017 19.3817H9.31624V18.1308C9.31624 16.1672 7.71624 14.5672 5.7526 14.5672C3.78896 14.5672 2.18896 16.1672 2.18896 18.1308V43.3381C2.18896 43.3381 2.18896 43.3381 2.18896 43.3454C2.18896 43.3526 2.18896 43.3454 2.18896 43.3526C2.18896 45.3163 3.78896 46.9163 5.7526 46.9163H41.869C42.0726 46.9163 42.2326 46.7563 42.2326 46.5526V29.5563C42.6035 29.789 43.0326 29.9272 43.4835 29.9272C43.629 29.9272 43.7817 29.9126 43.9271 29.8835L44.6835 31.9345C44.7344 32.0799 44.8799 32.1745 45.0253 32.1745C45.069 32.1745 45.1126 32.1672 45.149 32.1526C45.3381 32.0799 45.4326 31.8763 45.3671 31.6872L44.6108 29.6363C45.0326 29.389 45.3817 29.0326 45.5926 28.5745ZM34.8653 6.38537V3.69446C34.8653 2.66173 35.709 1.81809 36.7417 1.81809C37.7744 1.81809 38.6181 2.66173 38.6181 3.69446V6.38537C38.6108 6.38537 38.5962 6.37809 38.589 6.37809C38.3126 6.28355 38.029 6.20355 37.7381 6.15264C37.6944 6.14537 37.6581 6.13809 37.6144 6.13082C37.3308 6.08718 37.0471 6.05809 36.749 6.05809H36.7417H36.7344C36.4435 6.05809 36.1599 6.08718 35.8762 6.13082C35.8326 6.13809 35.789 6.14537 35.7453 6.15264C35.4544 6.20355 35.1781 6.28355 34.909 6.37809C34.8871 6.37809 34.8726 6.37809 34.8653 6.38537ZM34.6835 7.24355C34.829 7.17082 34.9817 7.11264 35.1344 7.06173C35.149 7.05446 35.1562 7.05446 35.1708 7.04718C35.3381 6.989 35.5053 6.94537 35.6726 6.90173H35.6799C36.5526 6.70537 37.4544 6.75627 38.3126 7.04718C38.3199 7.04718 38.3199 7.04718 38.3271 7.05446C38.4871 7.11264 38.6471 7.17809 38.8071 7.25082C40.4581 8.029 41.5999 9.70173 41.5999 11.6435C41.5999 14.3272 39.4181 16.5017 36.7417 16.5017C34.0653 16.5017 31.8835 14.3199 31.8835 11.6435C31.8762 9.70173 33.0326 8.02173 34.6835 7.24355ZM36.7344 17.2363C36.9017 17.2363 37.0617 17.229 37.2217 17.2145L38.0144 19.389H35.4617L36.2544 17.2145C36.4144 17.2217 36.5744 17.2363 36.7344 17.2363ZM35.5199 17.0981L31.4981 28.1454C31.3526 28.5454 31.0544 28.8654 30.669 29.0472C30.2835 29.229 29.8471 29.2435 29.4471 29.0981C29.0471 28.9526 28.7271 28.6545 28.5453 28.269C28.3635 27.8835 28.349 27.4472 28.4944 27.0472L32.6981 15.4908C33.4471 16.2835 34.4217 16.8508 35.5199 17.0981ZM2.91624 18.1308C2.91624 16.5672 4.18896 15.2945 5.7526 15.2945C7.31624 15.2945 8.58896 16.5672 8.58896 18.1308V41.1854C7.93442 40.3272 6.90896 39.7745 5.7526 39.7745C4.59624 39.7745 3.57078 40.3272 2.91624 41.1854V18.1308ZM5.7526 46.1817C4.18896 46.1817 2.91624 44.909 2.91624 43.3454V43.3381C2.91624 41.7745 4.18896 40.5017 5.7526 40.5017C7.31624 40.5017 8.58896 41.7745 8.58896 43.3381C8.58896 43.5417 8.74896 43.7017 8.9526 43.7017C9.15624 43.7017 9.31624 43.5417 9.31624 43.3381V20.109H30.2399L27.8035 26.7999C27.4253 27.8326 27.8326 28.9526 28.7126 29.5345L27.9199 31.6799C27.8471 31.869 27.949 32.0799 28.1381 32.1454C28.1817 32.1599 28.2253 32.1672 28.2617 32.1672C28.4071 32.1672 28.5453 32.0726 28.6035 31.9272L29.3744 29.8254C29.5781 29.8835 29.7817 29.9199 29.9853 29.9199C30.9381 29.9199 31.8326 29.3308 32.1744 28.3854L35.1853 20.1017H38.269L41.2799 28.3854C41.3381 28.5381 41.4108 28.6763 41.4908 28.8072V46.1817H5.7526ZM44.029 29.0981C43.629 29.2435 43.1926 29.2217 42.8071 29.0472C42.4217 28.8654 42.1235 28.5454 41.9781 28.1454L37.9562 17.0981C39.0544 16.8508 40.029 16.2835 40.7781 15.4981L44.9817 27.0545C45.1271 27.4545 45.1126 27.8908 44.9308 28.2763C44.749 28.6617 44.429 28.9526 44.029 29.0981Z" fill="#E2AE5E"/>
<path d="M36.7347 13.6724C37.8547 13.6724 38.7637 12.7633 38.7637 11.6433C38.7637 10.5233 37.8547 9.61426 36.7347 9.61426C35.6147 9.61426 34.7056 10.5233 34.7056 11.6433C34.7128 12.7633 35.6147 13.6724 36.7347 13.6724Z" fill="#E2AE5E"/>
<path d="M26.3124 34.3419L25.3233 34.1892C25.1778 33.6801 24.9669 33.1929 24.7051 32.7129L25.3087 31.9129C25.5342 31.6219 25.5051 31.2001 25.2433 30.9383L24.1015 29.7965C23.8397 29.5347 23.4178 29.5056 23.1269 29.731L22.2906 30.3492C21.8324 30.0874 21.3451 29.891 20.8287 29.7529L20.6906 28.7347C20.6397 28.3638 20.3197 28.0874 19.9487 28.0874H18.3342C17.9633 28.0874 17.6433 28.3638 17.5924 28.7347L17.4324 29.7601C16.9233 29.9056 16.436 30.1019 15.9851 30.3565L15.1706 29.7383C14.8797 29.5129 14.4578 29.5419 14.196 29.8038L13.0469 30.9529C12.7851 31.2147 12.756 31.6365 12.9815 31.9201L13.5778 32.7419C13.316 33.2001 13.1124 33.6874 12.9524 34.2183L11.9778 34.3565C11.6142 34.4074 11.3306 34.7274 11.3306 35.0983V36.7129C11.3306 37.0838 11.6069 37.4038 11.9778 37.4547L12.9378 37.6001C13.0687 38.1238 13.2797 38.6329 13.556 39.1419L12.9815 39.891C12.756 40.1965 12.7851 40.6038 13.0542 40.8656L14.196 42.0001C14.4578 42.2619 14.8797 42.291 15.1706 42.0656L15.9197 41.5129C16.3997 41.7965 16.916 42.0147 17.4833 42.1674L17.6069 43.0692C17.6578 43.4401 17.9778 43.7165 18.3487 43.7165H19.9633C20.3342 43.7165 20.6542 43.4401 20.7051 43.0692L20.8433 42.1601C21.3742 42.0219 21.8978 41.8038 22.4069 41.5056L23.1342 42.0583C23.4251 42.2838 23.8469 42.2547 24.1087 41.9929L25.2578 40.851C25.5197 40.5892 25.5487 40.1747 25.3233 39.8692L24.7633 39.1056C25.0324 38.6183 25.2433 38.1092 25.3815 37.571L26.3342 37.4401C26.7051 37.3892 26.9815 37.0692 26.9815 36.6983V35.0838C26.9597 34.7129 26.676 34.3929 26.3124 34.3419ZM26.2106 36.7129L25.2651 36.8438C24.9742 36.8801 24.7342 37.0983 24.6469 37.3965C24.5306 37.8547 24.3487 38.3129 24.1015 38.7419C23.956 38.9965 23.9778 39.3165 24.1524 39.5565L24.7197 40.3274L23.556 41.4692L22.8142 40.902C22.5742 40.7347 22.2615 40.7201 21.9997 40.8656C21.5633 41.1201 21.1124 41.3165 20.6397 41.4401C20.3487 41.5201 20.1306 41.7601 20.0869 42.051L19.9487 42.9674L18.3197 42.9529L18.196 42.051C18.1597 41.7529 17.9415 41.5129 17.6433 41.4256C17.1633 41.3019 16.7051 41.1056 16.276 40.8583C16.1524 40.7929 16.0215 40.7565 15.8978 40.7565C15.7378 40.7565 15.5851 40.8074 15.4615 40.9092L14.7124 41.4619L13.5633 40.2983L14.1378 39.5419C14.3051 39.3092 14.3269 38.9892 14.1815 38.7274C13.9415 38.2983 13.7597 37.8474 13.636 37.3819C13.556 37.091 13.316 36.8729 13.0251 36.8365L12.0578 36.691L12.0797 35.0547L13.0542 34.9165C13.3524 34.8801 13.5851 34.6692 13.6651 34.3783C13.796 33.9201 13.9851 33.4838 14.2106 33.091C14.3706 32.8219 14.3487 32.5019 14.1669 32.2619L13.5633 31.4401L14.7269 30.291L15.556 30.9165C15.796 31.091 16.1087 31.1056 16.356 30.9601C16.7487 30.7419 17.1778 30.5674 17.6287 30.4365C17.9124 30.3565 18.1233 30.131 18.1742 29.8183L18.3269 28.7856L19.956 28.8001L20.0942 29.8329C20.1451 30.1238 20.356 30.3492 20.6397 30.4292C21.076 30.5456 21.5051 30.7201 21.9051 30.9456C22.1597 31.091 22.4724 31.0765 22.7197 30.9019L23.556 30.2765L24.7051 31.4401L24.1087 32.2329C23.9197 32.4729 23.9051 32.8001 24.0578 33.0547C24.2906 33.4619 24.4724 33.8983 24.6033 34.3492C24.6833 34.6474 24.9233 34.851 25.2142 34.8947L26.1887 35.0329L26.2397 34.6692L26.2106 36.7129Z" fill="#E2AE5E"/>
<path d="M19.1418 32.3926C17.2145 32.3926 15.6509 33.9635 15.6509 35.8908C15.6509 37.818 17.2145 39.3817 19.1418 39.3817C21.0691 39.3817 22.6327 37.818 22.6327 35.8908C22.64 33.9635 21.0691 32.3926 19.1418 32.3926ZM19.1418 38.6617C17.6145 38.6617 16.3782 37.418 16.3782 35.898C16.3782 34.3708 17.6218 33.1271 19.1418 33.1271C20.6691 33.1271 21.9054 34.3708 21.9054 35.898C21.9127 37.418 20.6691 38.6617 19.1418 38.6617Z" fill="#E2AE5E"/>
<path d="M37.8253 42.2256H29.9999C29.7962 42.2256 29.6362 42.3856 29.6362 42.5892C29.6362 42.7929 29.7962 42.9529 29.9999 42.9529H37.8253C38.029 42.9529 38.189 42.7929 38.189 42.5892C38.189 42.3856 38.029 42.2256 37.8253 42.2256Z" fill="#E2AE5E"/>
<path d="M37.8253 39.3672H29.9999C29.7962 39.3672 29.6362 39.5272 29.6362 39.7308C29.6362 39.9345 29.7962 40.0945 29.9999 40.0945H37.8253C38.029 40.0945 38.189 39.9345 38.189 39.7308C38.189 39.5272 38.029 39.3672 37.8253 39.3672Z" fill="#E2AE5E"/>
<path d="M37.8255 36.502H33.7528C33.5492 36.502 33.3892 36.662 33.3892 36.8656C33.3892 37.0692 33.5492 37.2292 33.7528 37.2292H37.8255C38.0292 37.2292 38.1892 37.0692 38.1892 36.8656C38.1892 36.662 38.0292 36.502 37.8255 36.502Z" fill="#E2AE5E"/>
<path d="M12.5672 26.2473H19.7963C20 26.2473 20.16 26.0873 20.16 25.8837C20.16 25.68 20 25.52 19.7963 25.52H12.5672C12.3636 25.52 12.2036 25.68 12.2036 25.8837C12.2036 26.0873 12.3636 26.2473 12.5672 26.2473Z" fill="#E2AE5E"/>
<path d="M12.5672 23.3816H19.7963C20 23.3816 20.16 23.2216 20.16 23.0179C20.16 22.8143 20 22.6543 19.7963 22.6543H12.5672C12.3636 22.6543 12.2036 22.8143 12.2036 23.0179C12.2036 23.2216 12.3636 23.3816 12.5672 23.3816Z" fill="#E2AE5E"/>
<path d="M2.5526 11.6146H29.6508C29.8544 11.6146 30.0144 11.4546 30.0144 11.2509V3.33092C30.0144 3.12729 29.8544 2.96729 29.6508 2.96729H2.5526C2.34896 2.96729 2.18896 3.12729 2.18896 3.33092V11.2509C2.18896 11.4473 2.34896 11.6146 2.5526 11.6146ZM2.91624 3.69456H5.21442V5.25092C5.21442 5.45456 5.37442 5.61456 5.57806 5.61456C5.78169 5.61456 5.94169 5.45456 5.94169 5.25092V3.69456H8.22533V7.11274C8.22533 7.31638 8.38533 7.47638 8.58897 7.47638C8.7926 7.47638 8.9526 7.31638 8.9526 7.11274V3.69456H11.2362V5.25092C11.2362 5.45456 11.3962 5.61456 11.5999 5.61456C11.8035 5.61456 11.9635 5.45456 11.9635 5.25092V3.69456H14.2471V7.11274C14.2471 7.31638 14.4071 7.47638 14.6108 7.47638C14.8144 7.47638 14.9744 7.31638 14.9744 7.11274V3.69456H17.2581V5.25092C17.2581 5.45456 17.4181 5.61456 17.6217 5.61456C17.8253 5.61456 17.9853 5.45456 17.9853 5.25092V3.69456H20.269V7.11274C20.269 7.31638 20.429 7.47638 20.6326 7.47638C20.8362 7.47638 20.9962 7.31638 20.9962 7.11274V3.69456H23.2799V5.25092C23.2799 5.45456 23.4399 5.61456 23.6435 5.61456C23.8471 5.61456 24.0071 5.45456 24.0071 5.25092V3.69456H26.2908V7.11274C26.2908 7.31638 26.4508 7.47638 26.6544 7.47638C26.8581 7.47638 27.0181 7.31638 27.0181 7.11274V3.69456H29.3162V10.8873H2.91624V3.69456Z" fill="#E2AE5E"/>
</svg>
