<svg width="107" height="100" viewBox="0 0 107 100" fill="none" xmlns="http://www.w3.org/2000/svg">
<path d="M15.1026 87.595V51.9529H16.3108L29.6011 70.6801V87.595H15.1026Z" fill="white"/>
<path d="M52.557 47.7242L43.4954 59.5042L0 0H17.821L52.557 47.7242Z" fill="white"/>
<path d="M106.926 87.595V1.81231L45.3077 86.3868V87.595H63.1288L92.4278 46.516V87.595H106.926Z" fill="white"/>
<path d="M16.1204 99.677V92.3763H16.1302L19.8392 97.6415L19.438 97.5632L23.1373 92.3763H23.1568V99.677H22.2173V94.5294L22.2761 95.0089L19.6044 98.7865H19.5848L16.8739 95.0089L17.0403 94.5685V99.677H16.1204Z" fill="white"/>
<path d="M24.7497 96.1441C24.7497 95.6548 24.841 95.1948 25.0237 94.7642C25.2129 94.3271 25.4739 93.9422 25.8066 93.6094C26.1394 93.2702 26.521 93.0059 26.9516 92.8167C27.3888 92.621 27.8585 92.5231 28.3609 92.5231C28.8567 92.5231 29.32 92.621 29.7506 92.8167C30.1877 93.0059 30.5726 93.2702 30.9054 93.6094C31.2446 93.9422 31.5089 94.3271 31.6981 94.7642C31.8873 95.1948 31.9819 95.6548 31.9819 96.1441C31.9819 96.6465 31.8873 97.1162 31.6981 97.5534C31.5089 97.9905 31.2446 98.3754 30.9054 98.7082C30.5726 99.0344 30.1877 99.2921 29.7506 99.4813C29.32 99.664 28.8567 99.7553 28.3609 99.7553C27.8585 99.7553 27.3888 99.664 26.9516 99.4813C26.521 99.2986 26.1394 99.0442 25.8066 98.718C25.4739 98.3917 25.2129 98.0101 25.0237 97.5729C24.841 97.1358 24.7497 96.6595 24.7497 96.1441ZM25.7283 96.1539C25.7283 96.5258 25.7968 96.8748 25.9338 97.2011C26.0708 97.5208 26.2601 97.8046 26.5015 98.0525C26.7429 98.3004 27.0234 98.4961 27.3431 98.6397C27.6628 98.7767 28.0086 98.8452 28.3805 98.8452C28.7458 98.8452 29.0883 98.7767 29.408 98.6397C29.7277 98.4961 30.005 98.3004 30.2399 98.0525C30.4748 97.8046 30.6607 97.5208 30.7977 97.2011C30.9347 96.8748 31.0032 96.5225 31.0032 96.1441C31.0032 95.7722 30.9347 95.4232 30.7977 95.097C30.6607 94.7642 30.4715 94.4739 30.2301 94.226C29.9887 93.978 29.7082 93.7856 29.3885 93.6486C29.0688 93.505 28.7262 93.4333 28.3609 93.4333C27.989 93.4333 27.6432 93.505 27.3235 93.6486C27.0038 93.7921 26.7233 93.9878 26.4819 94.2358C26.2405 94.4837 26.0545 94.774 25.9241 95.1068C25.7936 95.433 25.7283 95.782 25.7283 96.1539Z" fill="white"/>
<path d="M33.5812 99.677V92.6014H35.5091C36.2072 92.6014 36.801 92.7091 37.2903 92.9244C37.7861 93.1397 38.1841 93.4235 38.4842 93.7758C38.7843 94.1281 39.0029 94.5196 39.1399 94.9502C39.2835 95.3743 39.3552 95.7983 39.3552 96.2224C39.3552 96.7574 39.2606 97.2369 39.0714 97.661C38.8887 98.0851 38.6343 98.4472 38.3081 98.7473C37.9819 99.0474 37.6067 99.2791 37.1826 99.4422C36.7651 99.5988 36.3214 99.677 35.8517 99.677H33.5812ZM34.5305 98.7669H35.6657C36.0572 98.7669 36.416 98.7082 36.7422 98.5907C37.075 98.4733 37.362 98.3037 37.6034 98.0818C37.8514 97.86 38.0438 97.5893 38.1808 97.2696C38.3179 96.9434 38.3864 96.5747 38.3864 96.1637C38.3864 95.7266 38.3146 95.3449 38.1711 95.0187C38.0275 94.6859 37.8318 94.4087 37.5839 94.1868C37.3359 93.965 37.0554 93.7986 36.7422 93.6877C36.4291 93.5703 36.0996 93.5116 35.7538 93.5116H34.5305V98.7669Z" fill="white"/>
<path d="M40.9497 92.6014H45.5494V93.5116H41.899V95.6646H45.1579V96.5747H41.899V98.7669H45.6864V99.677H40.9497V92.6014Z" fill="white"/>
<path d="M47.3339 92.6014H48.2832V98.7669H51.8748V99.677H47.3339V92.6014Z" fill="white"/>
<path d="M53.4217 92.6014H54.371V98.7669H57.9627V99.677H53.4217V92.6014Z" fill="white"/>
<path d="M60.6336 97.3185L58.0108 92.6014H59.1754L61.2795 96.5062L60.9859 96.5258L63.0704 92.6014H64.2252L61.5829 97.3185V99.677H60.6336V97.3185Z" fill="white"/>
<path d="M68.6175 99.677V92.3763H68.6273L72.3364 97.6415L71.9352 97.5632L75.6344 92.3763H75.654V99.677H74.7145V94.5294L74.7732 95.0089L72.1015 98.7865H72.082L69.3711 95.0089L69.5375 94.5685V99.677H68.6175Z" fill="white"/>
<path d="M77.2468 96.1441C77.2468 95.6548 77.3382 95.1948 77.5209 94.7642C77.7101 94.3271 77.971 93.9422 78.3038 93.6094C78.6365 93.2702 79.0182 93.0059 79.4488 92.8167C79.8859 92.621 80.3557 92.5231 80.858 92.5231C81.3539 92.5231 81.8171 92.621 82.2477 92.8167C82.6849 93.0059 83.0698 93.2702 83.4025 93.6094C83.7418 93.9422 84.006 94.3271 84.1952 94.7642C84.3844 95.1948 84.479 95.6548 84.479 96.1441C84.479 96.6465 84.3844 97.1162 84.1952 97.5534C84.006 97.9905 83.7418 98.3754 83.4025 98.7082C83.0698 99.0344 82.6849 99.2921 82.2477 99.4813C81.8171 99.664 81.3539 99.7553 80.858 99.7553C80.3557 99.7553 79.8859 99.664 79.4488 99.4813C79.0182 99.2986 78.6365 99.0442 78.3038 98.718C77.971 98.3917 77.7101 98.0101 77.5209 97.5729C77.3382 97.1358 77.2468 96.6595 77.2468 96.1441ZM78.2255 96.1539C78.2255 96.5258 78.294 96.8748 78.431 97.2011C78.568 97.5208 78.7572 97.8046 78.9986 98.0525C79.24 98.3004 79.5206 98.4961 79.8403 98.6397C80.1599 98.7767 80.5057 98.8452 80.8776 98.8452C81.243 98.8452 81.5855 98.7767 81.9052 98.6397C82.2249 98.4961 82.5022 98.3004 82.7371 98.0525C82.9719 97.8046 83.1579 97.5208 83.2949 97.2011C83.4319 96.8748 83.5004 96.5225 83.5004 96.1441C83.5004 95.7722 83.4319 95.4232 83.2949 95.097C83.1579 94.7642 82.9687 94.4739 82.7273 94.226C82.4859 93.978 82.2053 93.7856 81.8856 93.6486C81.5659 93.505 81.2234 93.4333 80.858 93.4333C80.4862 93.4333 80.1404 93.505 79.8207 93.6486C79.501 93.7921 79.2204 93.9878 78.979 94.2358C78.7376 94.4837 78.5517 94.774 78.4212 95.1068C78.2907 95.433 78.2255 95.782 78.2255 96.1539ZM82.375 90.9279L81.1321 92.2393H80.5547L81.3669 90.9279H82.375Z" fill="white"/>
<path d="M86.1476 92.6014L88.4768 98.4537L87.9386 98.3461L90.1503 92.6014H91.2562L88.1343 100L85.0222 92.6014H86.1476Z" fill="white"/>
<path d="M92.6728 92.6014H97.2724V93.5116H93.6221V95.6646H96.881V96.5747H93.6221V98.7669H97.4094V99.677H92.6728V92.6014Z" fill="white"/>
<path d="M99.0569 92.6014H100.006V99.677H99.0569V92.6014Z" fill="white"/>
<path d="M105.699 93.8639C105.457 93.7399 105.193 93.6323 104.906 93.5409C104.619 93.4496 104.339 93.4039 104.065 93.4039C103.686 93.4039 103.383 93.492 103.154 93.6681C102.933 93.8443 102.822 94.0792 102.822 94.3728C102.822 94.5946 102.893 94.7838 103.037 94.9404C103.18 95.0904 103.37 95.2209 103.605 95.3318C103.839 95.4428 104.084 95.5471 104.339 95.645C104.56 95.7298 104.779 95.8244 104.994 95.9288C105.21 96.0332 105.402 96.1637 105.572 96.3203C105.748 96.4769 105.885 96.6693 105.983 96.8977C106.087 97.126 106.139 97.4098 106.139 97.7491C106.139 98.121 106.045 98.4603 105.855 98.7669C105.673 99.0735 105.409 99.3149 105.063 99.4911C104.717 99.6673 104.306 99.7553 103.83 99.7553C103.516 99.7553 103.216 99.7194 102.929 99.6477C102.649 99.5759 102.388 99.4846 102.146 99.3737C101.905 99.2562 101.69 99.1355 101.5 99.0116L101.921 98.2678C102.078 98.3787 102.257 98.4864 102.46 98.5907C102.662 98.6886 102.874 98.7702 103.096 98.8354C103.317 98.8941 103.533 98.9235 103.742 98.9235C103.963 98.9235 104.182 98.8843 104.397 98.806C104.619 98.7212 104.802 98.594 104.945 98.4244C105.089 98.2547 105.161 98.0296 105.161 97.7491C105.161 97.5077 105.095 97.3087 104.965 97.1521C104.841 96.989 104.675 96.852 104.466 96.7411C104.257 96.6237 104.035 96.5193 103.8 96.4279C103.578 96.3431 103.353 96.2518 103.125 96.1539C102.897 96.0495 102.685 95.9256 102.489 95.782C102.293 95.632 102.137 95.4493 102.019 95.234C101.902 95.0187 101.843 94.7577 101.843 94.4511C101.843 94.0792 101.931 93.7562 102.107 93.4822C102.29 93.2017 102.538 92.9831 102.851 92.8265C103.164 92.6634 103.523 92.5753 103.928 92.5623C104.384 92.5623 104.785 92.6177 105.131 92.7286C105.484 92.8396 105.793 92.9766 106.061 93.1397L105.699 93.8639Z" fill="white"/>
</svg>
